<svg version="1.1" xmlns="http://www.w3.org/2000/svg" xmlns:xlink="http://www.w3.org/1999/xlink" viewBox="0 0 172 172"><g fill="none" fill-rule="nonzero" stroke="none" stroke-width="1" stroke-linecap="butt" stroke-linejoin="miter" stroke-miterlimit="10" stroke-dasharray="" stroke-dashoffset="0" font-family="none" font-weight="none" font-size="none" text-anchor="none" style="mix-blend-mode: normal"><path d="M0,172v-172h172v172z" fill="none"></path><g fill="#666666"><path d="M22.93333,11.46667c-3.1648,0 -5.73333,2.56853 -5.73333,5.73333v120.4c0,12.66493 10.2684,22.93333 22.93333,22.93333h86h5.73333h5.73333c12.66493,0 22.93333,-10.2684 22.93333,-22.93333v-80.26667c0,-3.1648 -2.56853,-5.73333 -5.73333,-5.73333h-11.46667v86c0,3.17053 -2.56853,5.73333 -5.73333,5.73333c-3.1648,0 -5.73333,-2.5628 -5.73333,-5.73333v-120.4c0,-3.1648 -2.56853,-5.73333 -5.73333,-5.73333zM34.4,34.4h80.26667v17.2h-80.26667zM34.4,74.53333h34.4v11.46667h-34.4zM80.26667,74.53333h34.4v11.46667h-34.4zM34.4,97.46667h34.4v11.46667h-34.4zM80.26667,97.46667h34.4v11.46667h-34.4zM34.4,120.4h34.4v11.46667h-34.4zM80.26667,120.4h34.4v11.46667h-34.4z"></path></g></g></svg>
